<mxfile host="app.diagrams.net" modified="2023-09-14T22:14:45.451Z" agent="Mozilla/5.0 (Windows NT 10.0; Win64; x64) AppleWebKit/537.36 (KHTML, like Gecko) Chrome/116.0.0.0 Safari/537.36" etag="PhcPXP-JPgGWHIR4JQYY" version="21.7.4" type="device">
  <diagram id="R2lEEEUBdFMjLlhIrx00" name="Page-1">
    <mxGraphModel dx="1134" dy="614" grid="1" gridSize="10" guides="1" tooltips="1" connect="1" arrows="1" fold="1" page="1" pageScale="1" pageWidth="850" pageHeight="1100" background="none" math="0" shadow="0" extFonts="Permanent Marker^https://fonts.googleapis.com/css?family=Permanent+Marker">
      <root>
        <mxCell id="0" />
        <mxCell id="1" parent="0" />
        <mxCell id="Dd1cYbYYxi9G3Xba6974-25" value="" style="edgeStyle=orthogonalEdgeStyle;rounded=0;orthogonalLoop=1;jettySize=auto;html=1;" edge="1" parent="1" source="Dd1cYbYYxi9G3Xba6974-1" target="Dd1cYbYYxi9G3Xba6974-16">
          <mxGeometry relative="1" as="geometry" />
        </mxCell>
        <mxCell id="Dd1cYbYYxi9G3Xba6974-1" value="Booking storage" style="shape=cylinder3;whiteSpace=wrap;html=1;boundedLbl=1;backgroundOutline=1;size=15;" vertex="1" parent="1">
          <mxGeometry x="160" y="230" width="60" height="80" as="geometry" />
        </mxCell>
        <mxCell id="Dd1cYbYYxi9G3Xba6974-5" value="" style="edgeStyle=orthogonalEdgeStyle;rounded=0;orthogonalLoop=1;jettySize=auto;html=1;" edge="1" parent="1" source="Dd1cYbYYxi9G3Xba6974-16" target="Dd1cYbYYxi9G3Xba6974-4">
          <mxGeometry relative="1" as="geometry">
            <mxPoint x="350" y="270" as="sourcePoint" />
          </mxGeometry>
        </mxCell>
        <mxCell id="Dd1cYbYYxi9G3Xba6974-7" value="" style="edgeStyle=orthogonalEdgeStyle;rounded=0;orthogonalLoop=1;jettySize=auto;html=1;" edge="1" parent="1" source="Dd1cYbYYxi9G3Xba6974-4" target="Dd1cYbYYxi9G3Xba6974-6">
          <mxGeometry relative="1" as="geometry">
            <Array as="points">
              <mxPoint x="558" y="260" />
            </Array>
          </mxGeometry>
        </mxCell>
        <mxCell id="Dd1cYbYYxi9G3Xba6974-28" style="edgeStyle=orthogonalEdgeStyle;rounded=0;orthogonalLoop=1;jettySize=auto;html=1;exitX=1;exitY=0.5;exitDx=0;exitDy=0;exitPerimeter=0;entryX=0.5;entryY=0;entryDx=0;entryDy=0;" edge="1" parent="1" source="Dd1cYbYYxi9G3Xba6974-4" target="Dd1cYbYYxi9G3Xba6974-27">
          <mxGeometry relative="1" as="geometry">
            <Array as="points">
              <mxPoint x="465" y="280" />
              <mxPoint x="558" y="280" />
            </Array>
          </mxGeometry>
        </mxCell>
        <mxCell id="Dd1cYbYYxi9G3Xba6974-4" value="Processed storage" style="shape=cylinder3;whiteSpace=wrap;html=1;boundedLbl=1;backgroundOutline=1;size=15;" vertex="1" parent="1">
          <mxGeometry x="405" y="230" width="60" height="80" as="geometry" />
        </mxCell>
        <mxCell id="Dd1cYbYYxi9G3Xba6974-9" value="" style="edgeStyle=orthogonalEdgeStyle;rounded=0;orthogonalLoop=1;jettySize=auto;html=1;entryX=0.5;entryY=1;entryDx=0;entryDy=0;" edge="1" parent="1" source="Dd1cYbYYxi9G3Xba6974-6" target="Dd1cYbYYxi9G3Xba6974-12">
          <mxGeometry relative="1" as="geometry">
            <mxPoint x="557.5" y="100" as="targetPoint" />
          </mxGeometry>
        </mxCell>
        <mxCell id="Dd1cYbYYxi9G3Xba6974-6" value="Reporter:&lt;br&gt;Scheduled runs of extracting reporting metrics" style="rounded=1;whiteSpace=wrap;html=1;" vertex="1" parent="1">
          <mxGeometry x="520" y="110" width="75" height="110" as="geometry" />
        </mxCell>
        <mxCell id="Dd1cYbYYxi9G3Xba6974-12" value="&lt;font color=&quot;#ff3333&quot;&gt;&lt;br&gt;&lt;br&gt;User&lt;/font&gt;" style="shape=actor;whiteSpace=wrap;html=1;" vertex="1" parent="1">
          <mxGeometry x="537.5" width="40" height="60" as="geometry" />
        </mxCell>
        <mxCell id="Dd1cYbYYxi9G3Xba6974-21" value="" style="edgeStyle=orthogonalEdgeStyle;rounded=0;orthogonalLoop=1;jettySize=auto;html=1;exitX=1;exitY=0.5;exitDx=0;exitDy=0;" edge="1" parent="1" source="Dd1cYbYYxi9G3Xba6974-15" target="Dd1cYbYYxi9G3Xba6974-1">
          <mxGeometry relative="1" as="geometry">
            <mxPoint x="132.72000000000003" y="269.4" as="sourcePoint" />
          </mxGeometry>
        </mxCell>
        <mxCell id="Dd1cYbYYxi9G3Xba6974-16" value="Data transformer: transform raw data into clean metrics, (handle data quality)" style="rounded=1;whiteSpace=wrap;html=1;" vertex="1" parent="1">
          <mxGeometry x="240" y="235" width="140" height="70" as="geometry" />
        </mxCell>
        <mxCell id="Dd1cYbYYxi9G3Xba6974-15" value="Data extraction: Abstraction on the rest of the system" style="shape=process;whiteSpace=wrap;html=1;backgroundOutline=1;" vertex="1" parent="1">
          <mxGeometry x="10" y="240" width="120" height="60" as="geometry" />
        </mxCell>
        <mxCell id="Dd1cYbYYxi9G3Xba6974-26" value="&lt;div style=&quot;text-align: center;&quot;&gt;&lt;span style=&quot;background-color: initial; text-align: left;&quot;&gt;Supporting flows:&lt;/span&gt;&lt;/div&gt;&lt;ol&gt;&lt;li&gt;&lt;span style=&quot;background-color: initial; text-align: left;&quot;&gt;Yearly reports to individual users&lt;/span&gt;&lt;/li&gt;&lt;li&gt;Analytical exports to 3rd parties&lt;/li&gt;&lt;/ol&gt;&lt;div style=&quot;text-align: center;&quot;&gt;&lt;br&gt;&lt;/div&gt;" style="rounded=0;whiteSpace=wrap;html=1;align=left;verticalAlign=top;" vertex="1" parent="1">
          <mxGeometry x="10" y="10" width="220" height="70" as="geometry" />
        </mxCell>
        <mxCell id="Dd1cYbYYxi9G3Xba6974-39" value="" style="edgeStyle=orthogonalEdgeStyle;rounded=0;orthogonalLoop=1;jettySize=auto;html=1;" edge="1" parent="1" source="Dd1cYbYYxi9G3Xba6974-27" target="Dd1cYbYYxi9G3Xba6974-30">
          <mxGeometry relative="1" as="geometry" />
        </mxCell>
        <mxCell id="Dd1cYbYYxi9G3Xba6974-27" value="Exporter:&lt;br&gt;Scheduled runs of extracting analytical metrics" style="rounded=1;whiteSpace=wrap;html=1;" vertex="1" parent="1">
          <mxGeometry x="520" y="310" width="75" height="120" as="geometry" />
        </mxCell>
        <mxCell id="Dd1cYbYYxi9G3Xba6974-30" value="&lt;font color=&quot;#ff3333&quot;&gt;&lt;br&gt;&lt;br&gt;3rd party&lt;br&gt;&lt;/font&gt;" style="shape=actor;whiteSpace=wrap;html=1;" vertex="1" parent="1">
          <mxGeometry x="537.5" y="490" width="40" height="60" as="geometry" />
        </mxCell>
        <mxCell id="Dd1cYbYYxi9G3Xba6974-32" value="Examples of analytics to monetize:&lt;br&gt;&lt;ol&gt;&lt;li style=&quot;text-align: left;&quot;&gt;Top source/destinations (Where do people fly/hotel/car to the most?)&lt;/li&gt;&lt;li style=&quot;text-align: left;&quot;&gt;Seasonality (which time of year is the hottest?)&lt;/li&gt;&lt;li style=&quot;text-align: left;&quot;&gt;Problems (Top canceled destinations/agancies/)&lt;/li&gt;&lt;li style=&quot;text-align: left;&quot;&gt;Costs (? Avg $$$ spent per trip)&lt;/li&gt;&lt;li style=&quot;text-align: left;&quot;&gt;...&lt;/li&gt;&lt;li style=&quot;text-align: left;&quot;&gt;Etc&lt;/li&gt;&lt;/ol&gt;" style="rounded=0;whiteSpace=wrap;html=1;verticalAlign=top;" vertex="1" parent="1">
          <mxGeometry x="620" y="320" width="190" height="200" as="geometry" />
        </mxCell>
        <mxCell id="Dd1cYbYYxi9G3Xba6974-33" value="Examples of data to report:&lt;br&gt;&lt;ol&gt;&lt;li style=&quot;&quot;&gt;Number of trips&amp;nbsp;&lt;/li&gt;&lt;li style=&quot;&quot;&gt;Longest trip&lt;/li&gt;&lt;li style=&quot;&quot;&gt;Shortest trip&lt;/li&gt;&lt;li style=&quot;&quot;&gt;Most travelled month&lt;/li&gt;&lt;li style=&quot;&quot;&gt;Cost (?)&lt;/li&gt;&lt;li style=&quot;&quot;&gt;...&lt;/li&gt;&lt;li style=&quot;&quot;&gt;etc.&lt;/li&gt;&lt;/ol&gt;" style="rounded=0;whiteSpace=wrap;html=1;verticalAlign=top;align=center;" vertex="1" parent="1">
          <mxGeometry x="620" y="15" width="190" height="140" as="geometry" />
        </mxCell>
        <mxCell id="Dd1cYbYYxi9G3Xba6974-35" value="&lt;div style=&quot;border-color: var(--border-color);&quot;&gt;Requirements:&lt;/div&gt;&lt;div style=&quot;border-color: var(--border-color);&quot;&gt;Analytical exports is the main revenue generation.&lt;/div&gt;&lt;div style=&quot;border-color: var(--border-color);&quot;&gt;&lt;ul&gt;&lt;li style=&quot;&quot;&gt;Scalability -&amp;gt; user growth -&amp;gt; more processing, more metrics&lt;br&gt;&lt;/li&gt;&lt;li style=&quot;&quot;&gt;Elasticity -&amp;gt; vary processing based on active bookings today&lt;/li&gt;&lt;li style=&quot;&quot;&gt;Data integrity -&amp;gt; data is delivered to the destination (user/3rd party)&lt;/li&gt;&lt;li style=&quot;border-color: var(--border-color);&quot;&gt;Extensibility -&amp;gt; easily add a new metric for exporting.&lt;/li&gt;&lt;li style=&quot;border-color: var(--border-color);&quot;&gt;Performance (? depending on exporter type?) -&amp;gt; metrics are exported sufficiently fast&lt;/li&gt;&lt;/ul&gt;&lt;/div&gt;" style="rounded=0;whiteSpace=wrap;html=1;align=center;verticalAlign=top;" vertex="1" parent="1">
          <mxGeometry x="30" y="380" width="230" height="230" as="geometry" />
        </mxCell>
        <mxCell id="Dd1cYbYYxi9G3Xba6974-41" value="Do we need a separate storage? To support some technical requirements? Scalability/performance?&lt;br&gt;Is it only a logical separation and both can reside in the same database, but different tables?" style="shape=callout;whiteSpace=wrap;html=1;perimeter=calloutPerimeter;rotation=0;position2=0.59;" vertex="1" parent="1">
          <mxGeometry x="337" y="70" width="175" height="140" as="geometry" />
        </mxCell>
        <mxCell id="Dd1cYbYYxi9G3Xba6974-42" value="Reporter and exporter are logically doing the same very similar, but support different business functions, so perhaps can be separated for better adherence to technical requirements?&amp;nbsp;&amp;nbsp;" style="shape=callout;whiteSpace=wrap;html=1;perimeter=calloutPerimeter;size=30;position=0;position2=0;base=50;" vertex="1" parent="1">
          <mxGeometry x="620" y="180" width="200" height="130" as="geometry" />
        </mxCell>
        <mxCell id="Dd1cYbYYxi9G3Xba6974-43" value="The type of exporting can be different. Dashboards, subscription to topics/api. Needs to be extensible, elastic (?)" style="shape=callout;whiteSpace=wrap;html=1;perimeter=calloutPerimeter;base=20;size=30;position=0.25;position2=1;" vertex="1" parent="1">
          <mxGeometry x="390" y="320" width="115" height="130" as="geometry" />
        </mxCell>
      </root>
    </mxGraphModel>
  </diagram>
</mxfile>
